<svg version="1.1" xmlns="http://www.w3.org/2000/svg" xmlns:xlink="http://www.w3.org/1999/xlink" width="211.23486328125" height="237"><defs/><g><g transform="translate(-446,-254) scale(1,1)"><rect fill="#C0C0C0" stroke="none" x="463" y="271" width="191.23486328125" height="70" opacity="0.2"/></g><g transform="translate(-446,-254) scale(1,1)"><rect fill="#ffffff" stroke="none" x="456" y="264" width="191.23486328125" height="70"/></g><g transform="translate(-446,-254) scale(1,1)"><path fill="none" stroke="#000000" d="M 456 264 L 647.23486328125 264 L 647.23486328125 334 L 456 334 L 456 264 Z Z" stroke-miterlimit="10"/></g><g transform="translate(-446,-254) scale(1,1)"><path fill="none" stroke="#000000" d="M 456 289 L 647.23486328125 289" stroke-miterlimit="10"/></g><g transform="translate(-446,-254) scale(1,1)"><path fill="none" stroke="#000000" d="M 456 312 L 647.23486328125 312" stroke-miterlimit="10"/></g><g transform="translate(-446,-254) scale(1,1)"><g><path fill="none" stroke="none"/><text fill="#000000" stroke="none" font-family="Arial" font-size="13px" font-style="normal" font-weight="bold" text-decoration="none" x="528.251708984375" y="283.5">Variable</text></g></g><g transform="translate(-446,-254) scale(1,1)"><g><path fill="none" stroke="none"/><text fill="#000000" stroke="none" font-family="Arial" font-size="13px" font-style="normal" font-weight="normal" text-decoration="none" x="461" y="306.5">+definition: VariableDefinition[1]</text></g></g><g transform="translate(-446,-254) scale(1,1)"><g><path fill="none" stroke="none"/><text fill="#000000" stroke="none" font-family="Arial" font-size="13px" font-style="normal" font-weight="normal" text-decoration="none" x="461" y="329.5">+interpret()</text></g></g><g transform="translate(-446,-254) scale(1,1)"><rect fill="#C0C0C0" stroke="none" x="463" y="431" width="191.23486328125" height="57" opacity="0.2"/></g><g transform="translate(-446,-254) scale(1,1)"><rect fill="#ffffff" stroke="none" x="456" y="424" width="191.23486328125" height="57"/></g><g transform="translate(-446,-254) scale(1,1)"><path fill="none" stroke="#000000" d="M 456 424 L 647.23486328125 424 L 647.23486328125 481 L 456 481 L 456 424 Z Z" stroke-miterlimit="10"/></g><g transform="translate(-446,-254) scale(1,1)"><path fill="none" stroke="#000000" d="M 456 449 L 647.23486328125 449" stroke-miterlimit="10"/></g><g transform="translate(-446,-254) scale(1,1)"><path fill="none" stroke="#000000" d="M 456 472 L 647.23486328125 472" stroke-miterlimit="10"/></g><g transform="translate(-446,-254) scale(1,1)"><g><path fill="none" stroke="none"/><text fill="#000000" stroke="none" font-family="Arial" font-size="13px" font-style="normal" font-weight="bold" text-decoration="none" x="501.153564453125" y="443.5">VariableDefinition</text></g></g><g transform="translate(-446,-254) scale(1,1)"><g><path fill="none" stroke="none"/><text fill="#000000" stroke="none" font-family="Arial" font-size="13px" font-style="normal" font-weight="normal" text-decoration="none" x="461" y="466.5">+name: String</text></g></g><g transform="translate(-446,-254) scale(1,1)"><path fill="none" stroke="#000000" d="M 551 423 L 551 335" stroke-miterlimit="10"/></g><g transform="translate(-446,-254) scale(1,1)"><path fill="#000000" stroke="none" d="M 555.209517756016 345.16267485762415 L 551 335 L 546.790482243984 345.16267485762415 L 551 357"/></g><g transform="translate(-446,-254) scale(1,1)"><path fill="none" stroke="#000000" d="M 555.209517756016 345.16267485762415 L 551 335 L 546.790482243984 345.16267485762415 L 551 357 L 555.209517756016 345.16267485762415" stroke-miterlimit="10"/></g><g transform="translate(-446,-254) scale(1,1)"><g><path fill="none" stroke="none"/><text fill="#000000" stroke="none" font-family="Arial" font-size="13px" font-style="normal" font-weight="normal" text-decoration="none" x="559.5" y="407.5">1</text></g></g></g></svg>